HIERARCHY
ROOT Hips
{
	OFFSET 0.000000 0.000000 0.000000
	CHANNELS 6 Xposition Yposition Zposition Zrotation Yrotation Xrotation 
	JOINT LHipJoint
	{
		OFFSET 0.000000 0.000000 0.000000
		CHANNELS 3 Zrotation Yrotation Xrotation
		JOINT LeftUpLeg
		{
			OFFSET 1.363060 -1.794630 0.839290
			CHANNELS 3 Zrotation Yrotation Xrotation
			JOINT LeftLeg
			{
				OFFSET 2.448110 -6.726130 0.000000
				CHANNELS 3 Zrotation Yrotation Xrotation
				JOINT LeftFoot
				{
					OFFSET 2.562200 -7.039590 0.000000
					CHANNELS 3 Zrotation Yrotation Xrotation
					JOINT LeftToeBase
					{
						OFFSET 0.157640 -0.433110 2.322550
						CHANNELS 3 Zrotation Yrotation Xrotation
						End Site
						{
							OFFSET 0.000000 0.000000 0.000000
						}
					}
				}
			}
		}
	}
	JOINT RHipJoint
	{
		OFFSET 0.000000 0.000000 0.000000
		CHANNELS 3 Zrotation Yrotation Xrotation
		JOINT RightUpLeg
		{
			OFFSET -1.305520 -1.794630 0.839290
			CHANNELS 3 Zrotation Yrotation Xrotation
			JOINT RightLeg
			{
				OFFSET -2.542530 -6.985550 0.000000
				CHANNELS 3 Zrotation Yrotation Xrotation
				JOINT RightFoot
				{
					OFFSET -2.568260 -7.056230 0.000000
					CHANNELS 3 Zrotation Yrotation Xrotation
					JOINT RightToeBase
					{
						OFFSET -0.164730 -0.452590 2.363150
						CHANNELS 3 Zrotation Yrotation Xrotation
						End Site
						{
							OFFSET 0.000000 0.000000 0.000000
						}
					}
				}
			}
		}
	}
	JOINT LowerBack
	{
		OFFSET 0.000000 0.000000 0.000000
		CHANNELS 3 Zrotation Yrotation Xrotation
		JOINT Spine
		{
			OFFSET 0.028270 2.035590 -0.193380
			CHANNELS 3 Zrotation Yrotation Xrotation
			JOINT Spine1
			{
				OFFSET 0.056720 2.048850 -0.042750
				CHANNELS 3 Zrotation Yrotation Xrotation
				JOINT Neck
				{
					OFFSET 0.000000 0.000000 0.000000
					CHANNELS 3 Zrotation Yrotation Xrotation
					JOINT Neck1
					{
						OFFSET -0.054170 1.746240 0.172020
						CHANNELS 3 Zrotation Yrotation Xrotation
						JOINT Head
						{
							OFFSET 0.104070 1.761360 -0.123970
							CHANNELS 3 Zrotation Yrotation Xrotation
							End Site
							{
								OFFSET 0.000000 0.000000 0.000000
							}
						}
					}
				}
				JOINT LeftShoulder
				{
					OFFSET 0.000000 0.000000 0.000000
					CHANNELS 3 Zrotation Yrotation Xrotation
					JOINT LeftArm
					{
						OFFSET 3.362410 1.200890 -0.311210
						CHANNELS 3 Zrotation Yrotation Xrotation
						JOINT LeftForeArm
						{
							OFFSET 4.983000 -0.000000 -0.000000
							CHANNELS 3 Zrotation Yrotation Xrotation
							JOINT LeftHand
							{
								OFFSET 3.483560 -0.000000 -0.000000
								CHANNELS 3 Zrotation Yrotation Xrotation
								JOINT LeftFingerBase
								{
									OFFSET 0.000000 0.000000 0.000000
									CHANNELS 3 Zrotation Yrotation Xrotation
									JOINT LeftHandIndex1
									{
										OFFSET 0.715260 -0.000000 -0.000000
										CHANNELS 3 Zrotation Yrotation Xrotation
										End Site
										{
											OFFSET 0.000000 0.000000 0.000000
										}
									}
								}
								JOINT LThumb
								{
									OFFSET 0.000000 0.000000 0.000000
									CHANNELS 3 Zrotation Yrotation Xrotation
									End Site
									{
										OFFSET 0.000000 0.000000 0.000000
									}
								}
							}
						}
					}
				}
				JOINT RightShoulder
				{
					OFFSET 0.000000 0.000000 0.000000
					CHANNELS 3 Zrotation Yrotation Xrotation
					JOINT RightArm
					{
						OFFSET -3.136600 1.374050 -0.404650
						CHANNELS 3 Zrotation Yrotation Xrotation
						JOINT RightForeArm
						{
							OFFSET -5.241900 -0.000000 -0.000000
							CHANNELS 3 Zrotation Yrotation Xrotation
							JOINT RightHand
							{
								OFFSET -3.444170 -0.000000 -0.000000
								CHANNELS 3 Zrotation Yrotation Xrotation
								JOINT RightFingerBase
								{
									OFFSET 0.000000 0.000000 0.000000
									CHANNELS 3 Zrotation Yrotation Xrotation
									JOINT RightHandIndex1
									{
										OFFSET -0.622530 -0.000000 -0.000000
										CHANNELS 3 Zrotation Yrotation Xrotation
										End Site
										{
											OFFSET 0.000000 0.000000 0.000000
										}
									}
								}
								JOINT RThumb
								{
									OFFSET 0.000000 0.000000 0.000000
									CHANNELS 3 Zrotation Yrotation Xrotation
									End Site
									{
										OFFSET 0.000000 0.000000 0.000000
									}
								}
							}
						}
					}
				}
			}
		}
	}
}
MOTION
Frames: 13
Frame Time: 0.008333
-10.664332 16.744146 0.422848 -30.954804 86.837949 -14.763627 -11.068180 2.997556 -0.033576 -11.096937 -0.635259 -8.960301 -0.045995 2.073233 40.993221 2.019145 13.319487 0.028366 1.685000 -0.000000 -65.701100 8.885530 0.315086 3.085475 2.608529 1.778486 -38.761707 3.045694 0.139441 7.980011 0.685032 3.496918 6.454625 0.308500 0.000000 -56.927101 1.283659 -3.421870 -2.337895 -0.495238 -3.662809 -3.254868 -7.399587 -3.724616 0.682441 9.900568 -8.584872 -8.310776 -3.869642 -0.288567 -0.206606 0.000000 0.000000 0.000000 -3.596123 5.692313 1.350814 -52.891292 -2.118291 9.170443 -1.661026 -58.667878 -0.026724 17.436046 -1.960053 -0.321624 -0.207597 0.124321 0.000000 0.000000 0.000000 0.000000 0.000000 0.000000 0.000000 17.298396 -7.346194 1.808884 59.682408 -9.336038 -13.111778 4.069458 9.252049 0.001509 -4.501277 1.421366 -0.058845 0.149943 -0.032089 -0.000000 0.000000 0.000000 0.000000 0.000000 0.000000 0.000000 
-10.422897 16.723345 0.411086 -39.460333 86.343788 -23.469599 -11.305401 2.939386 -0.178755 -10.573803 0.337735 -10.780643 0.292102 2.278145 45.124431 2.237009 14.777359 1.835569 2.285800 -0.000000 -59.904900 8.860891 0.106116 3.032184 3.329501 2.070313 -38.805055 2.954066 -0.176773 10.180725 0.623354 3.077561 7.557833 0.244600 0.000000 -55.243500 2.040710 -3.222463 -2.232431 -0.356009 -3.511480 -3.259207 -7.394617 -3.574724 0.653667 9.702458 -8.251042 -8.269937 -3.899469 -0.291170 -0.196956 0.000000 0.000000 0.000000 -4.036388 5.965379 1.392454 -53.568920 -2.044455 8.972832 -1.731066 -57.274778 -0.025119 17.222982 -1.519808 -0.248434 -0.198685 0.113461 0.000000 0.000000 0.000000 0.000000 0.000000 0.000000 0.000000 17.160425 -6.891487 1.801130 59.598776 -8.692803 -12.310253 4.077629 9.756973 0.001698 -4.579842 1.525893 -0.064230 0.151082 -0.033377 -0.000000 0.000000 0.000000 0.000000 0.000000 0.000000 0.000000 
-10.185544 16.703559 0.394700 -46.155067 85.813288 -30.376267 -11.556770 2.815450 -0.332737 -10.071254 1.281517 -12.655548 0.587027 2.451719 49.155738 2.443947 16.094745 3.062854 2.791500 0.000000 -51.440600 8.803810 -0.111501 2.946275 4.121639 2.210547 -38.792902 2.881227 -0.473123 12.305704 0.580481 2.835977 8.463812 0.220500 0.000000 -53.685301 2.804119 -3.034001 -2.073508 -0.217374 -3.368693 -3.255857 -7.390255 -3.433570 0.612954 9.519014 -7.869650 -8.230845 -3.931185 -0.293766 -0.189098 0.000000 0.000000 0.000000 -4.481266 6.241520 1.442388 -54.323561 -1.926801 8.851971 -1.798907 -55.810410 -0.023598 17.042739 -1.074291 -0.176751 -0.189338 0.102799 0.000000 0.000000 0.000000 0.000000 0.000000 0.000000 0.000000 17.031713 -6.387535 1.799323 59.540486 -7.948513 -11.436354 4.082602 10.318390 0.001966 -4.603814 1.660136 -0.070212 0.151716 -0.034951 -0.000000 0.000000 0.000000 0.000000 0.000000 0.000000 0.000000 
-9.952579 16.685989 0.374445 -51.611912 85.274565 -36.037712 -11.814458 2.646053 -0.487091 -9.599526 2.161286 -14.598161 0.836337 2.608870 53.012449 2.625004 17.214684 3.630077 3.132800 0.000000 -41.771800 8.718324 -0.327448 2.835822 4.950980 2.217525 -38.703755 2.834122 -0.734359 14.264220 0.554015 2.735602 9.094076 0.227600 0.000000 -52.531100 3.553730 -2.859015 -1.878220 -0.083140 -3.236045 -3.247760 -7.389388 -3.303037 0.561552 9.363566 -7.448618 -8.191850 -3.965409 -0.296435 -0.182282 0.000000 0.000000 0.000000 -4.918327 6.507785 1.497602 -55.131833 -1.758643 8.834251 -1.860662 -54.304984 -0.022129 16.915441 -0.659235 -0.111568 -0.179630 0.092620 0.000000 0.000000 0.000000 0.000000 0.000000 0.000000 0.000000 16.928806 -5.845672 1.803302 59.504014 -7.102346 -10.537487 4.081848 10.922796 0.002305 -4.593946 1.829676 -0.077092 0.151794 -0.036929 -0.000000 0.000000 0.000000 0.000000 0.000000 0.000000 0.000000 
-9.724252 16.671835 0.351269 -56.315214 84.761351 -40.920393 -12.066728 2.445236 -0.628156 -9.182166 2.919660 -16.612577 1.048738 2.757190 56.625267 2.776340 18.134393 3.627512 3.298900 -0.000000 -32.791200 8.613895 -0.533978 2.705350 5.783032 2.094064 -38.534572 2.815569 -0.954554 16.011426 0.540749 2.739202 9.390110 0.254100 0.000000 -51.944899 4.264294 -2.702364 -1.665733 0.041637 -3.117422 -3.237207 -7.394355 -3.187021 0.504012 9.248880 -7.007876 -8.153814 -4.002353 -0.299214 -0.176414 0.000000 0.000000 0.000000 -5.333255 6.753143 1.555251 -55.972836 -1.543429 8.944910 -1.913973 -52.775525 -0.020655 16.842240 -0.302568 -0.056385 -0.169603 0.083103 0.000000 0.000000 0.000000 0.000000 0.000000 0.000000 0.000000 16.870059 -5.291027 1.811761 59.483942 -6.143581 -9.627761 4.072738 11.555673 0.002687 -4.579305 2.033584 -0.085371 0.151346 -0.039342 -0.000000 0.000000 0.000000 0.000000 0.000000 0.000000 0.000000 
-9.500436 16.662064 0.325322 -60.851321 84.288914 -45.592224 -12.311558 2.217108 -0.741380 -8.812742 3.512139 -18.714556 1.234772 2.898366 59.968948 2.896866 18.848735 3.156572 3.293700 -0.000000 -25.595200 8.490500 -0.734468 2.564542 6.611233 1.863883 -38.283212 2.828091 -1.130421 17.509096 0.533428 2.781709 9.332255 0.276900 -0.000000 -51.956800 4.942537 -2.567412 -1.461894 0.158174 -3.018019 -3.230966 -7.406269 -3.091029 0.433807 9.169775 -6.517015 -8.100300 -4.043731 -0.302451 -0.166530 0.000000 0.000000 0.000000 -5.727400 6.951978 1.618277 -56.827585 -1.259118 9.198425 -1.957710 -51.242759 -0.019127 16.804598 -0.016145 -0.012299 -0.159196 0.074293 0.000000 0.000000 0.000000 0.000000 0.000000 0.000000 0.000000 16.849776 -4.695371 1.824426 59.495867 -5.131126 -8.856321 4.055508 12.216871 0.003093 -4.558029 2.274954 -0.095049 0.150337 -0.042496 -0.000000 0.000000 0.000000 0.000000 0.000000 0.000000 0.000000 
-9.281153 16.657446 0.298017 -65.282510 83.892933 -50.112372 -12.534591 1.973652 -0.817214 -8.549699 3.895316 -20.891094 1.397043 3.034482 63.020050 2.988213 19.368618 2.253956 3.118400 -0.000000 -20.108601 8.363171 -0.918899 2.409304 7.386636 1.502353 -37.958790 2.866501 -1.265320 18.772559 0.530054 2.850924 8.915605 0.291600 0.000000 -52.514300 5.536689 -2.458480 -1.274610 0.256819 -2.939344 -3.225050 -7.424166 -3.015932 0.369995 9.139921 -6.054693 -8.050617 -4.085909 -0.305681 -0.157683 0.000000 0.000000 0.000000 -6.080275 7.119105 1.679550 -57.690078 -0.952430 9.611613 -1.993242 -49.687317 -0.017526 16.767418 0.193329 0.019991 -0.148608 0.066280 0.000000 0.000000 0.000000 0.000000 0.000000 0.000000 0.000000 16.888211 -4.144167 1.837366 59.518810 -3.985605 -8.065750 4.026679 12.880331 0.003466 -4.584527 2.536728 -0.106525 0.149053 -0.046051 -0.000000 0.000000 0.000000 0.000000 0.000000 0.000000 0.000000 
-9.065900 16.658326 0.269216 -69.941807 83.568781 -54.808524 -12.738904 1.715756 -0.847285 -8.380520 4.060088 -23.142260 1.537958 3.163256 65.763424 3.051020 19.690459 0.962267 2.780200 0.000000 -16.068500 8.227732 -1.093515 2.249146 8.107238 1.043601 -37.550515 2.928401 -1.358071 19.777157 0.521855 2.885090 8.187297 0.279900 0.000000 -53.472900 6.057854 -2.373752 -1.123683 0.339530 -2.881815 -3.227594 -7.447866 -2.962700 0.296424 9.141279 -5.552402 -7.975196 -4.131577 -0.309458 -0.141375 0.000000 0.000000 0.000000 -6.398023 7.218631 1.746698 -58.549696 -0.578521 10.170595 -2.021684 -48.126701 -0.015860 16.679489 0.341700 0.042787 -0.137756 0.058999 0.000000 0.000000 0.000000 0.000000 0.000000 0.000000 0.000000 16.963498 -3.565131 1.851488 59.583911 -2.828433 -7.469885 3.988180 13.574642 0.003777 -4.624250 2.816411 -0.119202 0.147348 -0.050398 -0.000000 0.000000 0.000000 0.000000 0.000000 0.000000 0.000000 
-8.854425 16.664917 0.239888 -74.792511 83.327102 -59.655419 -12.914402 1.453568 -0.832091 -8.340187 4.004156 -25.426670 1.652280 3.284108 68.159466 3.087712 19.825654 -0.710132 2.286400 0.000001 -12.678500 8.095206 -1.250182 2.079713 8.733457 0.485466 -37.046802 3.005138 -1.411504 20.533531 0.505444 2.875101 7.205912 0.244700 0.000000 -54.662100 6.470011 -2.311691 -1.004581 0.399958 -2.841565 -3.232343 -7.474532 -2.926671 0.232138 9.177357 -5.088887 -7.895350 -4.175969 -0.313199 -0.123370 0.000000 0.000000 0.000000 -6.670407 7.276950 1.812741 -59.407950 -0.190099 10.870152 -2.046583 -46.532316 -0.014172 16.485895 0.444022 0.057989 -0.126958 0.052496 0.000000 0.000000 0.000000 0.000000 0.000000 0.000000 0.000000 17.081583 -3.039561 1.863003 59.670113 -1.579151 -6.895576 3.938616 14.274643 0.003977 -4.716042 3.097657 -0.133578 0.145571 -0.055184 -0.000000 0.000000 0.000000 0.000000 0.000000 0.000000 0.000000 
-8.646184 16.677106 0.210249 -79.852167 83.158116 -64.683359 -13.058344 1.192151 -0.772849 -8.428341 3.740555 -27.696194 1.735980 3.392735 70.157196 3.104150 19.803560 -2.639660 1.687500 -0.000000 -9.979499 7.968794 -1.387077 1.902233 9.246218 -0.145655 -36.424591 3.088951 -1.426553 21.033071 0.476053 2.798191 6.060783 0.187400 0.000000 -55.884700 6.767133 -2.266274 -0.916101 0.436957 -2.812335 -3.241086 -7.503032 -2.901785 0.168839 9.235241 -4.634563 -7.796426 -4.219632 -0.317106 -0.099575 0.000000 0.000000 0.000000 -6.899564 7.278558 1.881577 -60.262221 0.235862 11.673942 -2.070636 -44.909218 -0.012513 16.128571 0.527652 0.069397 -0.116285 0.046713 0.000000 0.000000 0.000000 0.000000 0.000000 0.000000 0.000000 17.227424 -2.532122 1.872276 59.791666 -0.308234 -6.419662 3.879278 15.006927 0.004050 -4.832475 3.372250 -0.148853 0.143652 -0.060525 -0.000000 0.000000 0.000000 0.000000 0.000000 0.000000 0.000000 
-8.440611 16.694562 0.180448 -85.054674 83.046660 -69.842856 -13.167351 0.937435 -0.676512 -8.638105 3.299778 -29.894590 1.782951 3.485475 71.707366 3.106037 19.652997 -4.717621 1.031000 -0.000000 -7.840500 7.852643 -1.501775 1.716963 9.629735 -0.820310 -35.659898 3.171338 -1.405333 21.271718 0.431325 2.643262 4.855085 0.114600 0.000000 -56.964400 6.946358 -2.230476 -0.849364 0.450478 -2.786436 -3.251500 -7.531073 -2.880154 0.108442 9.305422 -4.201929 -7.680180 -4.260697 -0.321019 -0.070497 0.000000 0.000000 0.000000 -7.089863 7.231518 1.952450 -61.113785 0.694019 12.542808 -2.097044 -43.253576 -0.010924 15.558044 0.618254 0.080014 -0.105913 0.041607 0.000000 0.000000 0.000000 0.000000 0.000000 0.000000 0.000000 17.388737 -2.050639 1.878277 59.943840 0.975157 -6.001829 3.811488 15.782273 0.003984 -4.962955 3.631290 -0.164529 0.141679 -0.066319 -0.000000 0.000000 0.000000 0.000000 0.000000 0.000000 0.000000 
-8.237125 16.716719 0.150558 -90.277617 82.977614 -75.029736 -13.237695 0.695565 -0.553833 -8.957677 2.725532 -31.963871 1.787871 3.558682 72.766931 3.099979 19.410140 -6.829087 0.365301 -0.000000 -6.192300 7.751849 -1.592380 1.523855 9.873087 -1.510093 -34.732525 3.243886 -1.351668 21.253115 0.371923 2.410566 3.694700 0.034900 0.000000 -57.777000 7.009511 -2.196899 -0.791426 0.441468 -2.755733 -3.260807 -7.556694 -2.853502 0.052004 9.379859 -3.800885 -7.549253 -4.297599 -0.324789 -0.036973 0.000000 0.000000 0.000000 -7.246704 7.145983 2.024647 -61.963344 1.181498 13.430609 -2.128791 -41.566577 -0.009439 14.739269 0.740141 0.092138 -0.095991 0.037088 0.000000 0.000000 0.000000 0.000000 0.000000 0.000000 0.000000 17.554480 -1.599694 1.880260 60.119994 2.261590 -5.598693 3.736838 16.614390 0.003795 -5.092531 3.869571 -0.179805 0.139705 -0.072470 -0.000000 0.000000 0.000000 0.000000 0.000000 0.000000 0.000000 
-8.035094 16.742782 0.120425 -95.378488 82.934120 -80.116678 -13.267728 0.470920 -0.416932 -9.365104 2.071027 -33.856310 1.748314 3.608654 73.306713 3.092505 19.113506 -8.859625 -0.265400 -0.000000 -5.048600 7.669475 -1.660149 1.325022 9.978829 -2.183625 -33.632501 3.299941 -1.270945 20.987861 0.300828 2.104747 2.678647 -0.045600 -0.000000 -58.274000 6.968933 -2.158406 -0.730909 0.413127 -2.713084 -3.266586 -7.577751 -2.814550 0.001043 9.450524 -3.439672 -7.408547 -4.328726 -0.328241 -0.000468 0.000000 0.000000 0.000000 -7.377135 7.039426 2.097112 -62.812116 1.692564 14.292620 -2.168455 -39.852315 -0.008068 13.658314 0.913083 0.106670 -0.086648 0.033022 0.000000 0.000000 0.000000 0.000000 0.000000 0.000000 0.000000 17.711659 -1.181817 1.877263 60.311347 3.543761 -5.167422 3.657398 17.516742 0.003512 -5.204166 4.084984 -0.193880 0.137770 -0.078885 -0.000000 0.000000 0.000000 0.000000 0.000000 0.000000 0.000000 
